<?xml version="1.0" encoding="UTF-8" standalone="no"?>
<!DOCTYPE svg PUBLIC "-//W3C//DTD SVG 1.1//EN" "http://www.w3.org/Graphics/SVG/1.1/DTD/svg11.dtd">
<svg width="100%" height="100%" viewBox="0 0 600 240" version="1.1" xmlns="http://www.w3.org/2000/svg" xmlns:xlink="http://www.w3.org/1999/xlink" xml:space="preserve" style="fill-rule:evenodd;clip-rule:evenodd;stroke-linejoin:round;stroke-miterlimit:1.41421;">
    <g transform="matrix(1,0,0,1,-30.6719,-20.6612)">
        <path d="M229.698,52.461L142.08,165.634L54.462,52.461L54.462,227.697L229.698,227.697L229.698,52.461Z" style="fill:rgb(255,0,0);"/>
    </g>
    <g transform="matrix(1,0,0,1,157.481,-20.4279)">
        <path d="M229.698,52.461L142.08,165.401L54.462,52.461L54.462,227.697L229.698,227.697L229.698,52.461Z" style="fill:rgb(255,0,0);"/>
    </g>
    <g transform="matrix(1.02244,0,0,1.02244,-8.99682,-4.88391)">
        <path d="M486.669,35.879C510.098,35.879 531.343,45.301 546.82,60.56C489.503,121.613 489.226,121.574 489.226,121.574C489.226,121.574 489.755,122.047 546.751,182.656C531.281,197.875 510.063,207.269 486.669,207.269C439.373,207.269 400.974,168.871 400.974,121.574C400.974,74.278 439.373,35.879 486.669,35.879Z" style="fill:rgb(255,228,0);"/>
    </g>
</svg>
